<svg xmlns="http://www.w3.org/2000/svg" viewBox="0 0 64 64">
  <defs>
    <linearGradient id="bg" x1="12" y1="8" x2="52" y2="56" gradientUnits="userSpaceOnUse">
      <stop offset="0" stop-color="#14b8a6" />
      <stop offset="1" stop-color="#fb923c" />
    </linearGradient>
    <linearGradient id="lid" x1="20" y1="14" x2="44" y2="26" gradientUnits="userSpaceOnUse">
      <stop offset="0" stop-color="#f8fafc" stop-opacity="0.98" />
      <stop offset="1" stop-color="#fed7aa" stop-opacity="0.95" />
    </linearGradient>
  </defs>

  <rect x="6" y="6" width="52" height="52" rx="16" fill="#0f172a" />
  <rect x="10" y="10" width="44" height="44" rx="13" fill="url(#bg)" />

  <path
    d="M21 25.5c0-3 2.5-5.5 5.5-5.5h11c3 0 5.5 2.5 5.5 5.5V41c0 2.8-2.2 5-5 5H26c-2.8 0-5-2.2-5-5V25.5Z"
    fill="#fff7ed"
    fill-opacity="0.96"
  />
  <path
    d="M24 24c0-2.2 1.8-4 4-4h8c2.2 0 4 1.8 4 4v2H24v-2Z"
    fill="url(#lid)"
  />
  <path
    d="M29 31c1.5-2.8 5.5-2.7 6.8.1.4.8.6 1.7.6 2.6 0 3.8-2.7 6.1-4.4 7.3-1.7-1.2-4.4-3.5-4.4-7.3 0-.9.2-1.8.6-2.7.2-.5.5-.9.8-1.3Z"
    fill="#14b8a6"
  />
  <path
    d="M32 28.5c.1 1.8 1.2 2.9 3.1 3.5"
    fill="none"
    stroke="#0f766e"
    stroke-linecap="round"
    stroke-width="2"
  />
</svg>
